<?xml version="1.0" encoding="UTF-8"?>
<svg width="335px" height="210px" viewBox="0 0 335 210" version="1.1" xmlns="http://www.w3.org/2000/svg" xmlns:xlink="http://www.w3.org/1999/xlink">
    <!-- Generator: Sketch 49.3 (51167) - http://www.bohemiancoding.com/sketch -->
    <title>Promotion / Klarna Card / A, Flat, Plain</title>
    <desc>Created with Sketch.</desc>
    <defs>
        <path d="M116.222222,24.7320988 C116.222222,26.6583907 117.78379,28.2199588 119.710082,28.2199588 C121.636374,28.2199588 123.197942,26.6583907 123.197942,24.7320988 C123.197942,22.8058068 121.636374,21.2442387 119.710082,21.2442387 C117.78379,21.2442387 116.222222,22.8058068 116.222222,24.7320988 Z M63.6456004,9.26419753 L58.1311971,9.26419753 L58.1311971,27.8201646 L63.8386045,27.8201646 L63.8386045,19.1625514 C63.8386045,16.2261317 67.0093864,14.6545267 69.2151477,14.6545267 L69.2151477,9.26419753 C67.1044521,9.18096674 65.0721224,10.070111 63.7007444,11.676749 L63.7007444,9.26419753 L63.6456004,9.26419753 Z M117.490535,9.36069959 L117.752469,9.36069959 C117.917901,9.36069959 117.986831,9.42962963 117.986831,9.5537037 C117.986831,9.67777778 117.986831,9.77427984 117.752469,9.77427984 L117.490535,9.77427984 L117.490535,9.36069959 Z M117.256173,9.12633745 L117.256173,10.5049383 L117.490535,10.5049383 L117.490535,10.008642 L117.752469,10.008642 L117.973045,10.5049383 L118.234979,10.5049383 L118.000617,9.96728395 C118.155885,9.8975036 118.249939,9.73705857 118.234979,9.56748971 C118.231704,9.44536972 118.177936,9.33007543 118.086485,9.24907645 C117.995035,9.16807747 117.874091,9.12862667 117.752469,9.14012346 L117.256173,9.12633745 Z M77.276749,11.3596708 L77.276749,9.26419753 L71.7623457,9.26419753 L71.7623457,27.8201646 L77.359465,27.8201646 L77.359465,18.0734568 C77.2739047,16.9464136 77.6795892,15.8373837 78.47219,15.0315729 C79.2647907,14.2257621 80.3669641,13.8018032 81.4952675,13.8687243 C83.9353909,13.8687243 85.3415638,15.3300412 85.3415638,18.0045267 L85.3415638,27.7925926 L90.8559671,27.7925926 L90.8559671,16.0193416 C90.8559671,11.704321 87.423251,8.76790123 82.9427984,8.76790123 C80.7247365,8.63395934 78.5836109,9.60391503 77.2216049,11.3596708 L77.276749,11.3596708 Z M39.3927984,18.5421811 C39.5330553,15.8616569 41.7473933,13.7601538 44.4315844,13.7601538 C47.1157754,13.7601538 49.3301134,15.8616569 49.4703704,18.5421811 C49.3301134,21.2227052 47.1157754,23.3242083 44.4315844,23.3242083 C41.7473933,23.3242083 39.5330553,21.2227052 39.3927984,18.5421811 Z M34.1811849,18.5421811 C34.1811849,23.9555944 38.5696234,28.3440329 43.9830367,28.3440329 C45.9525471,28.3502822 47.8768161,27.7537588 49.49744,26.6345679 L49.49744,27.8201646 L55.0118433,27.8201646 L55.0118433,9.26419753 L49.49744,9.26419753 L49.49744,10.4497942 C47.875218,9.33548688 45.9510761,8.74381325 43.9830367,8.75411523 C41.3846925,8.75045558 38.8915165,9.78007946 37.0529154,11.6160947 C35.2143142,13.4521099 34.1811823,15.9438343 34.1811849,18.5421811 Z M98.2220827,27.2114769 C101.435056,28.9090606 105.324046,28.6869393 108.32284,26.6345679 L108.32284,27.8201646 L113.837243,27.8201646 L113.837243,9.26419753 L108.32284,9.26419753 L108.32284,10.4497942 C105.322111,8.40782047 101.438638,8.19120568 98.2294335,9.88679796 C95.020229,11.5823902 93.0107195,14.9125792 93.0065844,18.5421811 C93.0010397,22.1760439 95.009109,25.5138932 98.2220827,27.2114769 Z M117.775323,8.80929984 C118.34453,8.81434288 118.8026,9.27852015 118.800104,9.84774407 C118.797608,10.416968 118.335485,10.8771099 117.766255,10.8771605 C117.489629,10.8771851 117.224529,10.7663609 117.030224,10.5694656 C116.83592,10.3725703 116.728616,10.1060254 116.732305,9.82942387 C116.739894,9.26024508 117.206116,8.80425681 117.775323,8.80929984 Z M117.766255,11.1115226 C118.474339,11.1115226 119.048354,10.5375075 119.048354,9.82942387 C119.048354,9.12134027 118.474339,8.5473251 117.766255,8.5473251 C117.058172,8.5473251 116.484156,9.12134027 116.484156,9.82942387 C116.484156,10.5375075 117.058172,11.1115226 117.766255,11.1115226 Z M98.031191,18.5421811 C98.171448,15.8616569 100.385786,13.7601538 103.069977,13.7601538 C105.754168,13.7601538 107.968506,15.8616569 108.108763,18.5421811 C107.968506,21.2227052 105.754168,23.3242083 103.069977,23.3242083 C100.385786,23.3242083 98.171448,21.2227052 98.031191,18.5421811 Z M26.2133745,27.8201646 L32.03107,27.8201646 L32.03107,0.992592593 L26.2133745,0.992592593 L26.2133745,27.8201646 Z M0.640329218,27.8201646 L6.76131687,27.8201646 L6.76131687,0.978806584 L0.585185185,0.978806584 L0.640329218,27.8201646 Z M16.1771605,0.978806584 C16.1837852,5.86842709 13.8719344,10.4716699 9.94588477,13.386214 L7.54711934,15.1646091 L16.8113169,27.7788066 L24.4211934,27.7788066 L15.9014403,16.1709877 C19.9443017,12.1503024 22.2125877,6.68060613 22.2016461,0.978806584 L16.1771605,0.978806584 Z" id="path-1"></path>
        <path d="M113.919959,188.565021 L49.2773663,100.403498 L65.9584362,87.9133745 C93.4661046,67.5045117 109.628722,35.2304565 109.49465,0.978806584 L151.610905,0.978806584 C151.783765,41.1943432 135.718238,79.7774543 107.054527,107.985802 L166.155144,188.565021 L113.919959,188.565021 Z M168.884774,5.91419753 L168.112757,5.91419753 L167.464815,4.42530864 L166.692798,4.42530864 L166.692798,5.90041152 L165.975926,5.90041152 L165.975926,1.88868313 L167.451029,1.88868313 C167.802706,1.86207578 168.149813,1.98151153 168.410659,2.21888101 C168.671504,2.45625049 168.82305,2.79058912 168.82963,3.14320988 C168.869061,3.64033973 168.585803,4.10688151 168.126543,4.30123457 L168.884774,5.91419753 Z M168.140329,3.15699588 C168.140329,2.79855967 167.933539,2.56419753 167.451029,2.56419753 L166.679012,2.56419753 L166.679012,3.79115226 L167.451029,3.79115226 C168.016255,3.79115226 168.140329,3.52921811 168.140329,3.15699588 Z M171.062963,3.98415638 C171.032625,6.06109317 169.331031,7.72384108 167.253948,7.70621597 C165.176864,7.68859085 163.503733,5.99720668 163.508644,3.92005413 C163.513555,1.84290158 165.194667,0.159448526 167.271811,0.151646091 C169.375446,0.166821281 171.070612,1.88048032 171.062963,3.98415638 Z M170.318519,3.98415638 C170.295751,2.30707858 168.921777,0.963803193 167.244612,0.978930519 C165.567448,0.994057845 164.217927,2.36189803 164.225414,4.03911366 C164.2329,5.71632929 165.594578,7.07206768 167.271811,7.07222222 C168.9643,7.05705966 170.326176,5.67669593 170.318519,3.98415638 Z M195.62963,142.533539 C182.107517,142.533539 171.145679,153.495377 171.145679,167.01749 C171.145679,180.539602 182.107517,191.50144 195.62963,191.50144 C209.151742,191.50144 220.11358,180.539602 220.11358,167.01749 C220.11358,153.495377 209.151742,142.533539 195.62963,142.533539 Z M44.1213992,1.15164609 L0.971193416,1.15164609 L0.971193416,188.73786 L44.1213992,188.73786 L44.1213992,1.15164609 Z" id="path-3"></path>
    </defs>
    <g id="Dev,-SE" stroke="none" stroke-width="1" fill="none" fill-rule="evenodd">
        <g id="Promotion-/-Klarna-Card-/-A,-Flat,-Plain">
            <g id="Promotion-/-Klarna-Card-/-A,-Flat">
                <g id="A">
                    <rect id="BG" fill="#E9BCC0" fill-rule="nonzero" x="0" y="0" width="335" height="210" rx="9"></rect>
                    <g id="Logo" transform="translate(200.028807, 9.650206)">
                        <mask id="mask-2" fill="white">
                            <use xlink:href="#path-1"></use>
                        </mask>
                        <use fill="#FFFFFF" fill-rule="nonzero" xlink:href="#path-1"></use>
                    </g>
                    <path d="M300.8107,84.8115226 C300.319609,84.1491218 300.458484,83.2140326 301.120885,82.7229424 C301.783286,82.2318522 302.718375,82.3707268 303.209465,83.0331276 C303.75306,83.7777701 304.180685,84.6004828 304.477778,85.473251 C305.084321,87.294377 305.084321,89.2630304 304.477778,91.0841564 C304.18059,91.9526138 303.752919,92.7707662 303.209465,93.5104938 C302.894248,93.938992 302.374374,94.1667743 301.845676,94.1080375 C301.316977,94.0493006 300.859775,93.712968 300.646293,93.2257329 C300.432811,92.7384979 300.495483,92.1743829 300.8107,91.7458848 C301.171401,91.2541191 301.454978,90.7102092 301.651646,90.1329218 C302.056179,88.9298727 302.056179,87.6275348 301.651646,86.4244856 C301.466494,85.8423379 301.18198,85.2966292 300.8107,84.8115226 M305.925309,82.054321 C308.261024,85.8901026 308.261024,90.7086628 305.925309,94.5444444 C305.585409,94.9956018 305.530086,95.6002516 305.782471,96.1055999 C306.034855,96.6109483 306.551476,96.9299546 307.116342,96.9292475 C307.681209,96.9285405 308.19703,96.608242 308.448148,96.1022634 C311.408822,91.3216098 311.408822,85.2771556 308.448148,80.4965021 C307.985407,79.8822951 307.131046,79.7215486 306.476725,80.1255827 C305.822404,80.5296168 305.583435,81.3654801 305.925309,82.054321 M311.329424,79.2971193 C314.581667,84.9073286 314.581667,91.8292969 311.329424,97.4395062 C311.02027,97.8991871 310.991889,98.4924996 311.255753,98.9795911 C311.519618,99.4666825 312.032094,99.7670046 312.586008,99.7591491 C313.139922,99.7512935 313.643676,99.4365593 313.893621,98.9421811 C317.717397,92.4114754 317.717397,84.3251501 313.893621,77.7944444 C313.454711,77.1418283 312.583916,76.9431384 311.905367,77.3407828 C311.226818,77.7384273 310.974572,78.5952429 311.329424,79.2971193 M316.719753,76.4709877 C320.911136,83.8537255 320.911136,92.896686 316.719753,100.279424 C316.315719,100.999332 316.568101,101.910368 317.284979,102.319753 C318.000764,102.722566 318.907545,102.469654 319.311523,101.754527 C324.016021,93.4553109 324.016021,83.2951007 319.311523,74.9958848 C318.907545,74.2807574 318.000764,74.0278458 317.284979,74.4306584 C316.568101,74.8400434 316.315719,75.7510798 316.719753,76.4709877" id="Wireless" fill="#FFFFFF" fill-rule="nonzero"></path>
                    <g id="Content" transform="translate(10.028807, 9.650206)">
                        <g id="Group" opacity="0.15" transform="translate(163.674897, 0.000000)" fill="#FFFFFF" fill-rule="nonzero">
                            <path d="M4.27366255,0.137860082 C2.71748098,0.115476163 1.30228942,1.0364081 0.692477719,2.46830608 C0.0826660159,3.90020406 0.399341009,5.55869727 1.49383332,6.66517307 C2.58832563,7.77164888 4.24327225,8.10636438 5.68172556,7.51218072 C7.12017887,6.91799707 8.05646619,5.51291741 8.05102881,3.95658436 C8.05867822,1.86052197 6.36968397,0.153035083 4.27366255,0.137860082 Z M4.27366255,7.0308642 C3.01430413,7.05325631 1.86644238,6.31187692 1.36891166,5.15474762 C0.871380947,3.99761832 1.12297754,2.65451401 2.00559586,1.7559207 C2.88821418,0.857327395 4.22658985,0.58168165 5.39245662,1.05837832 C6.55832338,1.53507499 7.32017131,2.66945489 7.32037037,3.92901235 C7.33511492,4.74911497 7.02152259,5.54110451 6.44934784,6.12881342 C5.87717308,6.71652233 5.0938659,7.05121238 4.27366255,7.05843621 L4.27366255,7.0308642 Z" id="Shape" opacity="0.3"></path>
                            <path d="M5.15596708,4.30123457 C5.61522713,4.10688151 5.89848464,3.64033973 5.8590535,3.14320988 C5.85247403,2.79058912 5.70092827,2.45625049 5.44008269,2.21888101 C5.1792371,1.98151153 4.83212971,1.86207578 4.48045267,1.88868313 L3.00534979,1.88868313 L3.00534979,5.90041152 L3.72222222,5.90041152 L3.72222222,4.42530864 L4.49423868,4.42530864 L5.14218107,5.91419753 L5.92798354,5.91419753 L5.15596708,4.30123457 Z M4.43909465,3.77736626 L3.66707819,3.77736626 L3.66707819,2.55041152 L4.43909465,2.55041152 C4.93539095,2.55041152 5.14218107,2.78477366 5.14218107,3.14320988 C5.14218107,3.50164609 5.00432099,3.77736626 4.43909465,3.77736626 Z" id="Shape" opacity="0.3"></path>
                        </g>
                        <g id="K" transform="translate(0.001192, 0.359789)">
                            <mask id="mask-4" fill="white">
                                <use xlink:href="#path-3"></use>
                            </mask>
                            <use id="Shape" fill="#F89EB0" fill-rule="nonzero" xlink:href="#path-3"></use>
                            <path d="M0.971193416,-0.0211934156 L0.971193416,50.7462963 C10.6513349,55.6139612 19.5836278,61.8442819 27.4954733,69.2471193 C32.8858025,74.2790123 38.6275705,79.7520576 44.3211919,85.473251 L45.1213992,-0.0211934156 L0.971193416,-0.0211934156 Z" id="Shape" fill="#F9ACBC" fill-rule="nonzero" opacity="0.803657156" mask="url(#mask-4)"></path>
                            <path d="M217.721193,155.506173 C212.806426,146.25624 202.051169,140.163151 191.711816,141.840646 C181.372464,143.51814 172.70935,152.593718 170.971193,162.923045 C186.550115,163.50216 203.1245,160.98109 217.721193,155.506173 Z" id="Shape" fill="#F9ACBC" fill-rule="nonzero" opacity="0.803657156" mask="url(#mask-4)"></path>
                            <path d="M108.496213,-0.0211934156 C108.585594,22.8132399 90.7305875,54.8819642 54.9311925,96.1849794 C80.2423036,121.137654 109.258025,147.372428 143.971193,158.084156 C149.847283,79.4909476 152.727708,26.7891643 152.612468,-0.0211934156 L108.496213,-0.0211934156 Z" id="Shape" fill="#F9ACBC" fill-rule="nonzero" opacity="0.803657156" mask="url(#mask-4)"></path>
                        </g>
                        <path d="M266.958025,165.413424 L257.307819,188.45 L251.007613,188.45 L246.25144,170.073251 C246.17556,169.203973 245.653499,168.436544 244.87284,168.046708 C243.005381,167.149693 241.032176,166.491958 239,166.089095 L239.13786,165.41358 L249.284362,165.41358 C250.663743,165.399013 251.841619,166.406097 252.041564,167.770988 L254.550617,181.102058 L260.754321,165.41358 L266.958025,165.413424 Z M291.648765,180.936626 C291.648765,174.856996 283.2393,174.512346 283.294444,171.796502 C283.294444,170.969342 284.094033,170.100823 285.817284,169.866461 C287.832237,169.677222 289.860956,170.034391 291.690123,170.900412 L292.73786,166.020165 C290.974478,165.356828 289.107443,165.011426 287.223457,165 C281.336831,165 277.187243,168.129424 277.145885,172.609877 C277.145885,175.932305 280.109877,177.77963 282.370782,178.88251 C284.631687,179.985391 285.472634,180.729835 285.458848,181.736214 C285.458848,183.294033 283.611523,183.969547 281.902058,183.997119 C279.766063,184.040329 277.65442,183.537331 275.767284,182.535802 L274.691975,187.595267 C276.807311,188.409732 279.056366,188.821202 281.323045,188.808436 C287.581893,188.808436 291.676337,185.72037 291.703909,180.936626 L291.648765,180.936626 Z M307.254527,188.45 L312.76893,188.45 L307.847325,165.41358 L302.801646,165.41358 C301.691907,165.416819 300.692267,166.085056 300.265021,167.109259 L291.331687,188.45 L297.590535,188.45 L298.831276,185.017284 L306.468724,185.017284 L307.254527,188.45 Z M300.595885,180.288683 L303.739095,171.644856 L305.545062,180.288683 L300.595885,180.288683 Z M275.422634,165.41358 L270.487243,188.45 L264.531687,188.45 L269.453292,165.41358 L275.422634,165.41358 Z" id="VISA" fill="#FFFFFF" fill-rule="nonzero"></path>
                    </g>
                </g>
            </g>
        </g>
    </g>
</svg>